<?xml version="1.0" encoding="UTF-8" standalone="no"?>
<svg
   xmlns:dc="http://purl.org/dc/elements/1.1/"
   xmlns:cc="http://creativecommons.org/ns#"
   xmlns:rdf="http://www.w3.org/1999/02/22-rdf-syntax-ns#"
   xmlns:svg="http://www.w3.org/2000/svg"
   xmlns="http://www.w3.org/2000/svg"
   xmlns:sodipodi="http://sodipodi.sourceforge.net/DTD/sodipodi-0.dtd"
   xmlns:inkscape="http://www.inkscape.org/namespaces/inkscape"
   sodipodi:docname="logo.svg"
   inkscape:version="1.0 (4035a4f, 2020-05-01)"
   inkscape:export-ydpi="768"
   inkscape:export-xdpi="768"
   inkscape:export-filename="/Users/user/Desktop/img/bitmap_1024_icon.png"
   width="128.0px"
   height="128.0px"
   viewBox="0 0 128.0 128.0"
   version="1.1"
   id="SVGRoot">
  <defs
     id="defs137" />
  <sodipodi:namedview
     inkscape:window-maximized="0"
     inkscape:window-y="0"
     inkscape:window-x="0"
     inkscape:window-height="1080"
     inkscape:window-width="1920"
     showgrid="true"
     inkscape:document-rotation="0"
     inkscape:current-layer="layer2"
     inkscape:document-units="px"
     inkscape:cy="54.551218"
     inkscape:cx="59.1765"
     inkscape:zoom="4.8656669"
     inkscape:pageshadow="2"
     inkscape:pageopacity="0.0"
     borderopacity="1.0"
     bordercolor="#666666"
     pagecolor="#ffffff"
     id="base">
    <inkscape:grid
       type="xygrid"
       id="grid146" />
  </sodipodi:namedview>
  <metadata
     id="metadata140">
    <rdf:RDF>
      <cc:Work
         rdf:about="">
        <dc:format>image/svg+xml</dc:format>
        <dc:type
           rdf:resource="http://purl.org/dc/dcmitype/StillImage" />
        <dc:title></dc:title>
      </cc:Work>
    </rdf:RDF>
  </metadata>
  <g
     inkscape:label="Layer 2"
     id="layer2"
     inkscape:groupmode="layer">
    <rect
       y="0"
       x="0"
       height="130"
       width="130"
       id="rect985"
       style="fill:#ececec;fill-opacity:1" />
  </g>
  <g
     id="layer1"
     inkscape:groupmode="layer"
     inkscape:label="Layer 1">
    <path
       style="fill:#3c3c43;fill-opacity:1"
       id="path156"
       d="m 29.9609,108.04882 h 66.6992 c 10.2056,0 15.2836,-5.07812 15.2836,-15.13671 V 33.293 c 0,-10.0586 -5.078,-15.1368 -15.2836,-15.1368 H 29.9609 c -10.2051,0 -15.332,5.0293 -15.332,15.1368 v 59.61911 c 0,10.10742 5.1269,15.13671 15.332,15.13671 z m -0.7324,-7.86132 c -4.3457,0 -6.7383,-2.29493 -6.7383,-6.83594 V 47.3066 c 0,-4.4922 2.3926,-6.8359 6.7383,-6.8359 h 68.0664 c 4.3457,0 6.7868,2.3437 6.7868,6.8359 v 46.04496 c 0,4.54101 -2.4411,6.83594 -6.7868,6.83594 z M 53.7402,58 h 2.8809 c 1.7089,0 2.2949,-0.4883 2.2949,-2.1973 v -2.8808 c 0,-1.709 -0.586,-2.2461 -2.2949,-2.2461 h -2.8809 c -1.709,0 -2.2949,0.5371 -2.2949,2.2461 v 2.8808 c 0,1.709 0.5859,2.1973 2.2949,2.1973 z M 70,58 h 2.832 c 1.709,0 2.2949,-0.4883 2.2949,-2.1973 v -2.8808 c 0,-1.709 -0.5859,-2.2461 -2.2949,-2.2461 H 70 c -1.7578,0 -2.295,0.5371 -2.295,2.2461 v 2.8808 C 67.705,57.5117 68.2422,58 70,58 Z m 16.2109,0 h 2.8809 c 1.7089,0 2.2461,-0.4883 2.2461,-2.1973 v -2.8808 c 0,-1.709 -0.5372,-2.2461 -2.2461,-2.2461 h -2.8809 c -1.709,0 -2.2949,0.5371 -2.2949,2.2461 v 2.8808 c 0,1.709 0.5859,2.1973 2.2949,2.1973 z M 37.5293,73.9668 h 2.8808 c 1.709,0 2.2461,-0.4883 2.2461,-2.1973 v -2.8808 c 0,-1.709 -0.5371,-2.1973 -2.2461,-2.1973 h -2.8808 c -1.709,0 -2.295,0.4883 -2.295,2.1973 v 2.8808 c 0,1.709 0.586,2.1973 2.295,2.1973 z m 16.2109,0 h 2.8809 c 1.7089,0 2.2949,-0.4883 2.2949,-2.1973 v -2.8808 c 0,-1.709 -0.586,-2.1973 -2.2949,-2.1973 h -2.8809 c -1.709,0 -2.2949,0.4883 -2.2949,2.1973 v 2.8808 c 0,1.709 0.5859,2.1973 2.2949,2.1973 z m 16.2598,0 h 2.832 c 1.709,0 2.2949,-0.4883 2.2949,-2.1973 v -2.8808 c 0,-1.709 -0.5859,-2.1973 -2.2949,-2.1973 H 70 c -1.7578,0 -2.295,0.4883 -2.295,2.1973 v 2.8808 c 0,1.709 0.5372,2.1973 2.295,2.1973 z m 16.2109,0 h 2.8809 c 1.7089,0 2.2461,-0.4883 2.2461,-2.1973 v -2.8808 c 0,-1.709 -0.5372,-2.1973 -2.2461,-2.1973 h -2.8809 c -1.709,0 -2.2949,0.4883 -2.2949,2.1973 v 2.8808 c 0,1.709 0.5859,2.1973 2.2949,2.1973 z M 37.5293,89.98242 h 2.8808 c 1.709,0 2.2461,-0.53711 2.2461,-2.24612 v -2.8808 c 0,-1.709 -0.5371,-2.1973 -2.2461,-2.1973 h -2.8808 c -1.709,0 -2.295,0.4883 -2.295,2.1973 v 2.8808 c 0,1.70901 0.586,2.24612 2.295,2.24612 z m 16.2109,0 h 2.8809 c 1.7089,0 2.2949,-0.53711 2.2949,-2.24612 v -2.8808 c 0,-1.709 -0.586,-2.1973 -2.2949,-2.1973 h -2.8809 c -1.709,0 -2.2949,0.4883 -2.2949,2.1973 v 2.8808 c 0,1.70901 0.5859,2.24612 2.2949,2.24612 z m 16.2598,0 h 2.832 c 1.709,0 2.2949,-0.53711 2.2949,-2.24612 v -2.8808 c 0,-1.709 -0.5859,-2.1973 -2.2949,-2.1973 H 70 c -1.7578,0 -2.295,0.4883 -2.295,2.1973 v 2.8808 c 0,1.70901 0.5372,2.24612 2.295,2.24612 z" />
  </g>
</svg>
